<svg width="48" height="48" viewBox="0 0 48 48" fill="none" xmlns="http://www.w3.org/2000/svg">
<path d="M15.6963 28.4773H27.0645C27.2958 28.4773 27.4904 28.5569 27.6484 28.7166C27.8064 28.876 27.8857 29.0732 27.8857 29.3093C27.8857 29.5456 27.8071 29.7397 27.6514 29.8933C27.4954 30.047 27.3001 30.1248 27.0645 30.1248H15.6963C15.461 30.1247 15.2663 30.0447 15.1104 29.8855C14.9542 29.7259 14.876 29.5283 14.876 29.2917C14.876 29.0554 14.9536 28.8613 15.1094 28.7078C15.2653 28.5542 15.4605 28.4773 15.6963 28.4773ZM31.9492 19.5105C32.1783 19.5105 32.3774 19.5942 32.5469 19.7634C32.7122 19.9287 32.7949 20.124 32.7949 20.3494C32.7949 20.5748 32.7141 20.7699 32.5527 20.9353L29.5547 23.9578L29.5371 23.9753L29.5547 23.9929L32.5781 27.0398C32.7395 27.2053 32.8183 27.3972 32.8164 27.616C32.8144 27.8348 32.7318 28.0267 32.5664 28.1921C32.401 28.3576 32.2049 28.4402 31.9775 28.4402C31.7503 28.4402 31.5549 28.3555 31.3896 28.1863H31.3887L27.75 24.5544C27.5847 24.3889 27.502 24.196 27.502 23.9753C27.502 23.7546 27.5846 23.5618 27.75 23.3962L31.3584 19.7634C31.5235 19.5943 31.7201 19.5106 31.9492 19.5105ZM15.6963 23.1228H24.1006C24.3318 23.1228 24.5254 23.2043 24.6836 23.366C24.8418 23.5276 24.9209 23.7254 24.9209 23.9617C24.9209 24.1981 24.8432 24.3921 24.6875 24.5457C24.5315 24.6994 24.3364 24.7771 24.1006 24.7771H15.6963C15.4608 24.7771 15.2664 24.6964 15.1104 24.5369C14.9542 24.3773 14.876 24.1804 14.876 23.9441C14.876 23.7078 14.9536 23.5127 15.1094 23.3572C15.2654 23.2015 15.4606 23.1228 15.6963 23.1228ZM15.6963 17.8699H27.0645C27.2957 17.8699 27.4904 17.9505 27.6484 18.1121C27.8063 18.2736 27.8857 18.4716 27.8857 18.7078C27.8857 18.9442 27.8071 19.1382 27.6514 19.2917C27.4954 19.4453 27.3001 19.5232 27.0645 19.5232H15.6963C15.461 19.5232 15.2663 19.4431 15.1104 19.2839C14.9542 19.1244 14.876 18.9267 14.876 18.6902C14.876 18.454 14.9536 18.2589 15.1094 18.1033C15.2654 17.9476 15.4606 17.8699 15.6963 17.8699Z" fill="white" stroke="white" stroke-width="0.05"/>
</svg>
